<?xml version="1.0" standalone="no"?>
<!DOCTYPE svg PUBLIC "-//W3C//DTD SVG 20010904//EN"
 "http://www.w3.org/TR/2001/REC-SVG-20010904/DTD/svg10.dtd">
<svg version="1.0" xmlns="http://www.w3.org/2000/svg"
 width="200.000000pt" height="200.000000pt" viewBox="0 0 200.000000 200.000000"
 preserveAspectRatio="xMidYMid meet">

<g transform="translate(0.000000,200.000000) scale(0.100000,-0.100000)"
fill="#000000" stroke="none">
<path d="M1010 1970 c-14 -11 -32 -20 -40 -20 -9 0 -26 -7 -38 -16 -13 -9 -30
-13 -38 -10 -18 7 -102 -34 -127 -62 -11 -11 -25 -18 -32 -16 -7 3 -27 -13
-45 -34 -17 -22 -40 -42 -49 -45 -10 -2 -30 -32 -46 -69 -15 -36 -37 -71 -48
-78 -11 -6 -71 -23 -134 -36 -158 -32 -234 -55 -240 -71 -6 -15 62 -257 113
-406 20 -55 58 -151 86 -212 l49 -110 2 -180 2 -180 26 -12 c14 -7 77 -26 140
-42 111 -29 114 -30 152 -78 21 -26 87 -101 145 -165 83 -91 113 -117 133
-118 29 0 92 62 239 233 53 62 93 99 109 103 77 17 209 57 229 70 22 15 23 18
22 188 -2 169 -1 175 25 226 72 142 225 600 225 674 0 23 -7 26 -127 55 -71
16 -145 33 -165 37 -24 4 -38 12 -38 21 0 8 -4 12 -9 9 -5 -3 -19 19 -31 48
-21 52 -121 170 -145 172 -5 0 -39 19 -75 43 -41 26 -72 40 -84 37 -19 -5 -29
-1 -113 42 -50 26 -42 26 -73 2z m-120 -500 c25 -6 61 -16 80 -22 50 -16 97
-14 160 6 30 9 75 21 100 26 25 4 58 13 74 20 25 9 34 8 55 -8 38 -28 61 -74
71 -139 5 -32 12 -78 16 -102 l7 -44 -39 7 c-21 4 -43 14 -49 22 -11 16 -83
21 -135 9 -19 -4 -65 -23 -101 -41 -37 -19 -76 -34 -88 -34 -12 0 -50 14 -84
31 -110 56 -213 70 -243 33 -6 -8 -25 -17 -43 -20 -29 -6 -31 -5 -31 25 0 29
9 73 32 166 5 21 25 54 43 72 l32 32 49 -14 c27 -7 69 -18 94 -25z m-373 -142
c-3 -8 -6 -5 -6 6 -1 11 2 17 5 13 3 -3 4 -12 1 -19z m1059 -5 c-10 -10 -19 5
-10 18 6 11 8 11 12 0 2 -7 1 -15 -2 -18z m-1038 -50 c-5 -25 -28 -28 -28 -4
0 12 6 21 16 21 9 0 14 -7 12 -17z m1037 -4 c0 -7 -8 -14 -18 -15 -12 -1 -13
-1 -2 3 17 5 20 19 5 26 -6 3 -5 4 2 3 7 -2 13 -9 13 -17z m-29 -79 c-14 -86
-28 -140 -36 -135 -7 4 -2 33 25 153 9 38 18 24 11 -18z m-988 -17 c22 -103
25 -126 15 -120 -6 4 -16 35 -22 69 -7 35 -14 71 -17 81 -3 9 -1 17 4 17 6 0
15 -21 20 -47z m374 10 c38 -10 59 -22 63 -34 6 -19 -19 -89 -32 -90 -4 0 -46
-4 -93 -8 -49 -5 -95 -5 -111 1 -32 11 -104 111 -95 133 3 9 18 15 38 15 32
-1 33 -1 10 -14 -20 -11 -21 -14 -9 -25 10 -8 17 -9 22 -1 10 16 55 12 55 -5
0 -8 6 -15 13 -16 10 0 10 -2 0 -6 -7 -2 -13 -11 -13 -19 0 -12 13 -14 63 -12
56 3 62 5 65 26 2 12 8 22 13 22 28 0 -7 18 -55 29 -65 14 -89 36 -29 26 21
-4 64 -14 95 -22z m348 18 c0 -5 -16 -12 -36 -16 -20 -3 -47 -10 -59 -15 -22
-8 -23 -12 -12 -39 11 -30 14 -31 69 -31 45 0 58 3 58 15 0 8 -4 15 -9 15 -5
0 0 11 12 24 21 23 24 24 46 10 17 -12 26 -13 35 -4 8 8 6 15 -8 26 -19 13
-19 14 6 14 49 0 51 -22 10 -81 -50 -72 -67 -79 -175 -70 -101 9 -119 20 -121
77 -1 36 1 39 39 52 33 11 79 22 138 31 4 0 7 -3 7 -8z m-195 -111 c22 -43 43
-50 164 -53 61 -1 111 -3 111 -5 0 -1 -14 -29 -30 -62 -26 -52 -37 -63 -88
-89 -31 -16 -76 -34 -99 -41 -38 -12 -45 -11 -61 3 -23 21 -46 21 -82 1 -26
-16 -31 -15 -98 10 -92 35 -117 56 -151 125 l-29 56 96 2 c140 2 160 8 179 49
22 46 65 48 88 4z m-558 -52 c-3 -8 -6 -5 -6 6 -1 11 2 17 5 13 3 -3 4 -12 1
-19z m389 -237 c11 -6 17 -11 14 -11 -3 0 -23 -3 -45 -6 -22 -3 -68 -19 -102
-35 l-62 -29 -88 16 c-48 8 -105 20 -127 26 -39 12 -58 35 -37 47 18 12 426 5
447 -8z m660 7 c6 -1 9 -9 7 -19 -3 -11 -25 -22 -66 -32 -136 -34 -170 -33
-247 8 -14 7 -42 15 -63 18 -48 6 -56 14 -26 26 18 7 337 6 395 -1z m-576 -23
c10 -12 10 -15 -4 -15 -9 0 -16 7 -16 15 0 8 2 15 4 15 2 0 9 -7 16 -15z m105
-4 c-3 -6 -14 -11 -23 -11 -15 1 -15 2 2 15 21 16 32 13 21 -4z m493 -192 l-3
-151 -50 -20 c-96 -38 -255 -69 -391 -75 l-131 -6 1 29 c1 31 -8 28 159 55 43
6 80 15 82 19 3 4 15 5 29 3 13 -3 27 0 30 6 4 6 20 11 36 11 16 0 32 5 35 10
3 6 16 10 29 10 32 0 34 4 22 60 -10 49 -27 63 -51 42 -11 -10 -129 -32 -169
-32 -14 0 -26 -4 -26 -10 0 -5 -21 -7 -51 -3 l-52 6 7 -49 c9 -56 -5 -51 -24
9 -8 25 -21 42 -36 47 -21 8 -24 16 -24 60 0 38 4 50 15 50 55 0 319 34 415
54 63 13 123 24 133 25 16 1 17 -11 15 -150z m-742 126 c18 -13 16 -14 -28
-15 -44 0 -65 9 -51 24 12 11 59 6 79 -9z m448 6 c6 -10 -73 -25 -83 -16 -9
10 22 25 51 25 15 0 29 -4 32 -9z m-794 -74 c0 -2 -7 -18 -16 -36 -11 -23 -13
-36 -6 -43 17 -17 42 -1 48 32 4 16 10 30 15 30 16 0 16 -16 -1 -45 -20 -36
-72 -43 -78 -12 -4 22 17 77 29 77 5 0 9 -2 9 -3z m111 -70 c-10 -9 -11 -8 -5
6 3 10 9 15 12 12 3 -3 0 -11 -7 -18z m26 -29 c-3 -7 -5 -2 -5 12 0 14 2 19 5
13 2 -7 2 -19 0 -25z m-37 5 c-1 -15 -30 -46 -37 -40 -3 4 2 16 12 27 19 21
25 24 25 13z m740 -60 c0 -22 -2 -24 -15 -13 -8 7 -15 24 -15 37 0 22 2 24 15
13 8 -7 15 -24 15 -37z m-70 -9 c0 -13 -4 -24 -10 -24 -5 0 -10 14 -10 31 0
17 4 28 10 24 6 -3 10 -17 10 -31z m-635 8 c-3 -3 -11 0 -18 7 -9 10 -8 11 6
5 10 -3 15 -9 12 -12z m418 -177 c119 0 217 -2 217 -4 0 -7 -168 -196 -214
-240 -45 -45 -45 -45 -67 -25 -37 33 -239 266 -239 275 0 5 18 6 43 2 23 -5
140 -8 260 -8z"/>
<path d="M1504 624 c-35 -15 -47 -44 -33 -80 12 -34 35 -40 75 -21 37 18 45
46 19 67 -8 7 -15 18 -15 26 0 20 -12 22 -46 8z m26 -55 c0 -24 -23 -21 -28 4
-2 10 3 17 12 17 10 0 16 -9 16 -21z"/>
</g>
</svg>
